<mxfile host="app.diagrams.net" modified="2023-07-30T15:46:47.217Z" agent="Mozilla/5.0 (Windows NT 10.0; Win64; x64) AppleWebKit/537.36 (KHTML, like Gecko) Chrome/115.0.0.0 Safari/537.36" version="21.6.6" etag="E0yh7Ncq-04Z2-K_J5Gw" type="github">
  <diagram name="Page-1" id="ttP_CVqv2VRX94GS51yd">
    <mxGraphModel>
      <root>
        <mxCell id="0" />
        <mxCell id="1" parent="0" />
      </root>
    </mxGraphModel>
  </diagram>
</mxfile>
